<svg id="Calque_1" data-name="Calque 1" xmlns="http://www.w3.org/2000/svg" viewBox="0 0 160 43"><defs><style>.cls-1{fill:#fb0001;}</style></defs><path class="cls-1" d="M19,4.35V9.78L9.82,10v8c3.45-.19,5.18-.27,8.63-.43V23c-3.45.22-5.17.35-8.62.6V38.34l-5.16.71V4.35Z"/><path class="cls-1" d="M33.73,4.35Q37,19.77,40.46,35.17c-2.16.16-3.24.25-5.4.43-.47-2.6-.71-3.91-1.18-6.53-2.73.19-4.1.29-6.83.5-.48,2.75-.72,4.12-1.2,6.89-2.16.22-3.24.34-5.39.58q3.38-16.37,6.86-32.69ZM33,23.94c-1-5.6-1.47-8.42-2.46-14.09h-.07c-1,5.71-1.51,8.59-2.51,14.38Z"/><path class="cls-1" d="M50.44,16.43h.07c2.63-4.89,4-7.3,6.58-12.08h5.62C59.9,9.43,58.5,12,55.7,17.16c3.1,6.78,4.65,10.12,7.76,16.78-2.34.08-3.51.12-5.85.22-2.11-4.8-3.16-7.21-5.27-12.08-.77,1.38-1.15,2.08-1.92,3.48,0,3.58,0,5.38,0,9-2.07.11-3.11.18-5.19.31q0-15.24.07-30.48h5.19C50.46,9.18,50.45,11.6,50.44,16.43Z"/><path class="cls-1" d="M81.93,9.2c-3.67,0-5.51,0-9.18,0v6.91c3.46,0,5.19,0,8.65,0v4.85c-3.46,0-5.19,0-8.65,0,0,3.16,0,4.74,0,7.9,3.83,0,5.74-.05,9.56,0v4.84c-5.9,0-8.85,0-14.76.16l0-29.48H81.93Z"/><path class="cls-1" d="M102.2,4.35V9.27c-3.67,0-5.51,0-9.18,0,0,2.77,0,4.16,0,6.93,3.46,0,5.19.06,8.65.11v4.91c-3.46-.07-5.19-.1-8.65-.15,0,5.12,0,7.68,0,12.79l-5.2-.09q0-14.68,0-29.37Z"/><path class="cls-1" d="M107.45,4.35h5.19l0,25.27c3.68.18,5.51.29,9.19.52,0,2,0,3.07,0,5.11-5.75-.44-8.62-.62-14.38-.91Z"/><path class="cls-1" d="M127.32,4.35h5.19q0,15.92.07,31.83c-2.07-.2-3.11-.3-5.18-.48Q127.36,20,127.32,4.35Z"/><path class="cls-1" d="M144,4.35c1.33,4.28,2,6.44,3.32,10.82,1.3-4.27,2-6.44,3.26-10.82h5.66c-2.39,6.85-3.59,10.19-6,16.73,2.57,7,3.85,10.59,6.4,18-2.32-.33-3.48-.49-5.81-.79-1.48-4.79-2.22-7.15-3.71-11.81-1.46,4.41-2.19,6.59-3.64,10.89-2.27-.26-3.41-.39-5.68-.63,2.55-6.27,3.82-9.47,6.37-16-2.37-6.68-3.55-9.94-5.93-16.35Z"/></svg>